<svg xmlns="http://www.w3.org/2000/svg" version="1.1" viewBox="162.89 162.89 426.23 426.22"> <g fill="#fff">  <path d="m489.23 162.89h-160.59c-26.5 0-51.914 10.52-70.66 29.246-18.746 18.73-29.289 44.133-29.312 70.633v44.988c-18.664 3.9727-35.391 14.246-47.371 29.098-11.98 14.852-18.48 33.375-18.41 52.453v99.926c0.023437 26.488 10.562 51.887 29.297 70.613 18.734 18.727 44.137 29.254 70.629 29.266h226.42c26.48-0.027343 51.871-10.555 70.598-29.281 18.727-18.727 29.254-44.117 29.281-70.598v-226.46c-0.027343-26.484-10.555-51.871-29.281-70.598-18.727-18.727-44.117-29.258-70.598-29.281zm66.727 326.34c0.015624 17.703-7.0117 34.68-19.527 47.199-12.52 12.516-29.496 19.543-47.199 19.527h-226.42c-17.711 0.027343-34.703-6.9961-47.23-19.512-12.523-12.52-19.559-29.504-19.547-47.215v-99.926c-0.20312-10.297 2.8203-20.398 8.6445-28.891 5.8281-8.4922 14.164-14.949 23.844-18.469v150.6c0.58984 5.5 3.8711 10.352 8.7578 12.949 4.8906 2.5938 10.746 2.5938 15.637 0 4.8867-2.5977 8.168-7.4492 8.7578-12.949v-229.78c-0.011719-17.742 7.0469-34.758 19.613-47.281 12.566-12.523 29.609-19.523 47.352-19.449h160.59c17.703-0.011718 34.68 7.0156 47.199 19.531 12.516 12.516 19.543 29.496 19.527 47.199z"></path>  <path d="m511.45 376h-138.29c-21.453-0.99609-21.453-36.891 0-37.887h138.29c21.453 0.99609 21.453 36.895 0 37.887z"></path>  <path d="m300.23 357.06c0 5.0234 1.9961 9.8438 5.5508 13.395 3.5508 3.5508 8.3711 5.5469 13.395 5.5469s9.8438-1.9961 13.395-5.5469c3.5508-3.5508 5.5469-8.3711 5.5469-13.395 0-5.0234-1.9961-9.8438-5.5469-13.395-3.5508-3.5547-8.3711-5.5508-13.395-5.5508s-9.8438 1.9961-13.395 5.5508c-3.5547 3.5508-5.5508 8.3711-5.5508 13.395z"></path>  <path d="m508.61 423.36c0-10.465-7.1992-18.941-16.055-18.941h-62.656c-21.359 0.99609-21.312 36.891 0 37.887h62.656c8.8555 0 16.055-8.4805 16.055-18.945z"></path>  <path d="m394.95 423.36c0.33984-4.6562-1.1719-9.2539-4.2031-12.801s-7.3438-5.7539-11.992-6.1406h-62.418c-21.5 0.99609-21.453 36.891 0 37.887h62.418c4.6484-0.39063 8.9609-2.5938 11.992-6.1445 3.0312-3.5469 4.543-8.1445 4.2031-12.801z"></path>  <path d="m394.95 489.66c0.33984-4.6523-1.1719-9.2539-4.2031-12.801s-7.3438-5.7539-11.992-6.1406h-62.418c-21.5 0.99609-21.453 36.891 0 37.887h62.418c4.6484-0.38672 8.9609-2.5938 11.992-6.1406s4.543-8.1484 4.2031-12.805z"></path>  <path d="m480.19 489.66c0.21875-4.7969-1.4727-9.4844-4.7031-13.035s-7.7383-5.6758-12.535-5.9062h-31.918c-22.875 0.99609-22.875 36.891 0 37.887h31.918c4.7969-0.23438 9.3047-2.3594 12.535-5.9102 3.2305-3.5508 4.9219-8.2383 4.7031-13.035z"></path>  <path d="m518.6 229.19h-209.42c-2.375 0-4.6523 0.94141-6.3281 2.6211-1.6797 1.6797-2.625 3.957-2.625 6.3281v57.871c0 4.9453 4.0078 8.9531 8.9531 8.9531h209.42c2.3711 0 4.6484-0.94531 6.3281-2.6211 1.6797-1.6797 2.6211-3.957 2.6211-6.332v-57.871c0-2.3711-0.94141-4.6484-2.6211-6.3281-1.6797-1.6797-3.957-2.6211-6.3281-2.6211zm-9.9922 52.094c0 1.2578-0.5 2.4609-1.3867 3.3477-0.89062 0.89063-2.0938 1.3867-3.3516 1.3867h-179.96c-2.6133 0-4.7344-2.1172-4.7344-4.7344v-28.414c0-2.6172 2.1211-4.7383 4.7344-4.7383h179.96c1.2578 0 2.4609 0.5 3.3516 1.3906 0.88672 0.88672 1.3867 2.0898 1.3867 3.3477z"></path> </g></svg>