<svg xmlns="http://www.w3.org/2000/svg" version="1.1" viewBox="162.88 162.89 426.47 426.22"> <g fill="#fff">  <path d="m539.81 281.76c11.285-4.6562 20.957-12.523 27.809-22.625 6.8516-10.102 10.59-21.996 10.742-34.203-3.457-82.688-126.59-82.688-130.05-0.046876 0.15234 12.207 3.8906 24.098 10.742 34.203 6.8516 10.102 16.523 17.969 27.809 22.625-13.98 3.9258-26.324 12.25-35.203 23.738-8.8828 11.492-13.824 25.535-14.098 40.055 0.30859 5.8672 3.6211 11.164 8.7617 14.012 5.1406 2.8516 11.387 2.8516 16.527 0 5.1406-2.8477 8.4531-8.1445 8.7617-14.012 0.34375-9.457 4.4375-18.387 11.379-24.82 6.9375-6.4336 16.152-9.8398 25.609-9.4688h9.9453c9.4141-0.30469 18.566 3.1289 25.453 9.5547 6.8867 6.4258 10.949 15.32 11.297 24.734 0.30859 5.8672 3.6172 11.164 8.7617 14.012 5.1406 2.8516 11.387 2.8516 16.527 0 5.1406-2.8477 8.4492-8.1445 8.7617-14.012-0.30078-14.543-5.2812-28.598-14.207-40.082-8.9219-11.484-21.316-19.781-35.332-23.664zm-26.473-77.668c5.6367-0.11328 11.09 2.0117 15.164 5.9062 4.0742 3.8984 6.4375 9.25 6.5742 14.887-1.1836 27.516-42.195 27.516-43.379 0h-0.003907c0.125-5.625 2.4727-10.969 6.5312-14.867 4.0547-3.8945 9.4883-6.0273 15.113-5.9258z"></path>  <path d="m555.96 416.16v6.6328c0.050781 17.723-6.957 34.738-19.48 47.289-12.52 12.547-29.52 19.59-47.246 19.578h-96.562v-293.62h29.93c5.5039-0.58594 10.355-3.8672 12.949-8.7578 2.5938-4.8867 2.5938-10.746 0-15.633-2.5938-4.8867-7.4453-8.168-12.949-8.7578h-159.83c-26.496 0.035156-51.891 10.586-70.617 29.328-18.727 18.742-29.25 44.148-29.262 70.645v159.93c0.011719 26.496 10.535 51.91 29.258 70.66 18.723 18.75 44.121 29.309 70.621 29.359h226.46c26.5-0.050781 51.895-10.609 70.621-29.359 18.723-18.75 29.246-44.164 29.258-70.66v-6.6328c-0.58984-5.5-3.8711-10.352-8.7578-12.949-4.8906-2.5938-10.746-2.5938-15.633 0-4.8906 2.5977-8.1719 7.4492-8.7617 12.949zm-196.63 73.5h-96.562c-17.727 0.011719-34.727-7.0312-47.25-19.578-12.52-12.551-19.527-29.566-19.48-47.289v-159.93c-0.035156-17.719 6.9805-34.723 19.5-47.258 12.516-12.539 29.512-19.578 47.23-19.566h96.562z"></path>  <path d="m312.3 390.21h-62.086c-21.738 1.043-21.691 36.938 0 37.887h62.086c6.7695 0 13.023-3.6094 16.406-9.4688 3.3828-5.8633 3.3828-13.082 0-18.945-3.3828-5.8594-9.6367-9.4727-16.406-9.4727z"></path>  <path d="m312.3 323.91h-62.086c-21.738 1.043-21.691 36.938 0 37.887h62.086c4.6719-0.36328 9.0117-2.5586 12.07-6.1055 3.0625-3.5469 4.5938-8.1641 4.2695-12.836 0.3125-4.6719-1.2266-9.2812-4.2852-12.824-3.0547-3.5469-7.3867-5.7461-12.055-6.1211z"></path>  <path d="m312.3 257.61h-62.086c-21.738 0.94531-21.691 36.938 0 37.887h62.086c4.668-0.375 9-2.5742 12.055-6.1172 3.0586-3.5469 4.5977-8.1523 4.2852-12.824 0.32422-4.6758-1.207-9.2891-4.2695-12.84-3.0586-3.5469-7.3984-5.7422-12.07-6.1055z"></path>  <path d="m501.69 390.21h-62.09c-21.645 1.043-21.645 36.938 0 37.887h62.09c6.7656 0 13.02-3.6094 16.402-9.4688 3.3867-5.8633 3.3867-13.082 0-18.945-3.3828-5.8594-9.6367-9.4727-16.402-9.4727z"></path>  <path d="m580.97 515.75c-3.7969-2.3086-8.3672-2.9805-12.668-1.8672-4.3008 1.1172-7.9648 3.9258-10.16 7.7891-11.871 20.406-33.648 33.016-57.258 33.148h-249.77c-23.605-0.14453-45.379-12.75-57.254-33.148-2.1953-3.8633-5.8633-6.6719-10.164-7.7891-4.3008-1.1133-8.8672-0.44141-12.664 1.8672-3.8242 2.3633-6.5703 6.1328-7.6523 10.496-1.0781 4.3633-0.40625 8.9766 1.875 12.852 8.6523 14.918 20.957 27.383 35.754 36.23 15.156 9.0273 32.469 13.789 50.105 13.781h249.77c17.723 0.050781 35.121-4.7109 50.344-13.781 14.809-8.832 27.117-21.305 35.754-36.23 2.2617-3.9023 2.8984-8.5352 1.7734-12.902-1.125-4.3672-3.9219-8.1211-7.7852-10.445z"></path> </g></svg>