<?xml version="1.0" encoding="utf-8"?>
<!-- Generator: Adobe Illustrator 26.0.2, SVG Export Plug-In . SVG Version: 6.00 Build 0)  -->
<svg version="1.1" id="_x2E_" xmlns="http://www.w3.org/2000/svg" xmlns:xlink="http://www.w3.org/1999/xlink" x="0px" y="0px"
	 viewBox="0 0 30.72 30.72" style="enable-background:new 0 0 30.72 30.72;" xml:space="preserve">
<style type="text/css">
	.st0{fill:#FFF;}
</style>
<g>
	<path class="st0" d="M28.82,13.24c0,3.61-0.78,6.5-2.33,8.68c-1.56,2.18-3.27,4.2-5.13,6.07c-1.87,0-3.48,0.15-4.85,0.47
		c-1.37,0.31-2.65,0.47-3.83,0.47c-1.18,0-2.27-0.31-3.27-0.93c-1-0.62-1.93-1.87-2.8-3.73c-1.87-1.87-3.42-3.73-4.67-5.6
		c-1.25-1.87-0.93-3.67,0.93-5.41c0-1.87,0.43-3.33,1.31-4.39C5.06,7.8,6.18,6.93,7.55,6.25c1.37-0.68,2.92-1.31,4.67-1.87
		c1.74-0.56,3.55-1.34,5.41-2.33c0.87,1,1.77,1.77,2.71,2.33c0.93,0.56,1.87,1.18,2.8,1.87c0.93,0.69,1.87,1.56,2.8,2.61
		C26.86,9.92,27.83,11.38,28.82,13.24z"/>
</g>
</svg>
