<svg xmlns="http://www.w3.org/2000/svg" version="1.1" viewBox="186.57 162.9 378.87 426.22"> <path d="m526.22 185.15c-3.4688-2.6367-7.8477-3.7695-12.156-3.1445-4.3086 0.62109-8.1875 2.9492-10.766 6.4609-2.5938 3.5195-3.7031 7.9141-3.0898 12.242 0.60937 4.332 2.8906 8.25 6.3555 10.914 16.559 12.582 26.254 32.199 26.191 52.992v225.05c0.10156 17.461-6.7305 34.246-18.992 46.676-12.262 12.43-28.953 19.488-46.41 19.625h-148.18v-359.92h28.414v128.34c-0.003907 7.25 2.8242 14.219 7.8867 19.414 5.0586 5.1992 11.949 8.2109 19.203 8.3945 7.25 0.1875 14.285-2.4688 19.605-7.3984l10.133-9.4727 10.133 9.4727h0.003906c5.1367 4.8125 11.902 7.5039 18.945 7.5312 3.7969 0 7.5547-0.78906 11.031-2.3242 4.9883-2.1641 9.2305-5.75 12.203-10.301 2.9688-4.5547 4.5391-9.8789 4.5156-15.316v-145.15c0.023437-4.3281-1.6758-8.4844-4.7227-11.551-3.0508-3.0664-7.1953-4.7891-11.52-4.7891h-158.98c-26.422 0.085937-51.73 10.652-70.375 29.375-18.645 18.727-29.102 44.078-29.074 70.504v226.46c-0.027343 26.422 10.43 51.777 29.074 70.504 18.645 18.723 43.953 29.285 70.375 29.375h181.34c26.188-0.19922 51.227-10.785 69.617-29.434 18.387-18.648 28.625-43.832 28.461-70.02v-225.05c0.16406-31.184-14.363-60.625-39.211-79.465zm-146.15 10.418h48.73v117.97l-13.355-12.406c-3-2.7656-6.9297-4.3008-11.008-4.3008-4.082 0-8.0117 1.5352-11.012 4.3008l-13.355 12.406zm-94.055 360.39c-17.656 0-34.586-7.043-47.031-19.57-12.445-12.523-19.383-29.5-19.27-47.156v-226.46c-0.11328-17.66 6.8242-34.633 19.27-47.16 12.445-12.523 29.375-19.57 47.031-19.57z" fill="#fff"></path></svg>