<svg version="1.1" viewBox="0 0 752 752" xmlns="http://www.w3.org/2000/svg"><path d="m513.53 519.66c5.7773 5.7773 15.148 5.7773 20.93 0 5.7773-5.7812 5.7773-15.152 0-20.934l-25.266-25.266v-0.38672-194.15c0-38.098-40.691-62.375-74.219-44.277l-106.9 57.699-60.008-60.004c-5.7773-5.7812-15.148-5.7812-20.93 0-5.7773 5.7773-5.7773 15.148 0 20.926zm-163.61-205.47 129.68 129.68v-164.94c0-15.688-16.758-25.684-30.562-18.234zm-10.918 117.73v-45.348l-29.602-29.598v70.828h-28.117c-13.078 0-23.68-10.602-23.68-23.68v-56.238c0-11.621 8.3711-21.285 19.414-23.297l-22.68-22.676c-15.754 9.2539-26.332 26.379-26.332 45.973v56.238c0 29.426 23.852 53.277 53.277 53.277h42.609l111.08 59.957c12.727 6.8711 26.488 7.6328 38.664 3.8516l-36.109-36.105z" fill="#fff" fill-rule="evenodd"/></svg>
