<svg version="1.1" viewBox="0 0 752 752" xmlns="http://www.w3.org/2000/svg"><path d="m434.98 234.65-111.08 59.957h-42.609c-29.426 0-53.277 23.852-53.277 53.277v56.238c0 29.422 23.852 53.277 53.277 53.277h42.609l111.08 59.957c33.527 18.094 74.219-6.1836 74.219-44.277v-194.15c0-38.098-40.691-62.375-74.219-44.277zm-125.57 193.15v-103.6h-28.117c-13.078 0-23.68 10.602-23.68 23.68v56.238c0 13.078 10.602 23.68 23.68 23.68zm29.602-107.71 110.03-59.395c13.805-7.4492 30.562 2.5469 30.562 18.234v194.15c0 15.688-16.758 25.68-30.562 18.23l-110.03-59.391z" fill="#fff" fill-rule="evenodd"/></svg>
